<svg width="320" height="4" viewBox="0 0 320 4" fill="none" xmlns="http://www.w3.org/2000/svg">
<rect x="-187" width="984" height="4" fill="#CB2941"/>
<path d="M314 0H316L314 4H312L314 0Z" fill="#F5F7F9"/>
<path d="M306 0H308L306 4H304L306 0Z" fill="#F5F7F9"/>
<path d="M298 0H300L298 4H296L298 0Z" fill="#F5F7F9"/>
<path d="M290 0H292L290 4H288L290 0Z" fill="#F5F7F9"/>
<path d="M282 0H284L282 4H280L282 0Z" fill="#F5F7F9"/>
<path d="M274 0H276L274 4H272L274 0Z" fill="#F5F7F9"/>
<path d="M266 0H268L266 4H264L266 0Z" fill="#F5F7F9"/>
<path d="M258 0H260L258 4H256L258 0Z" fill="#F5F7F9"/>
<path d="M250 0H252L250 4H248L250 0Z" fill="#F5F7F9"/>
<path d="M242 0H244L242 4H240L242 0Z" fill="#F5F7F9"/>
<path d="M234 0H236L234 4H232L234 0Z" fill="#F5F7F9"/>
<path d="M226 0H228L226 4H224L226 0Z" fill="#F5F7F9"/>
<path d="M218 0H220L218 4H216L218 0Z" fill="#F5F7F9"/>
<path d="M210 0H212L210 4H208L210 0Z" fill="#F5F7F9"/>
<path d="M202 0H204L202 4H200L202 0Z" fill="#F5F7F9"/>
<path d="M194 0H196L194 4H192L194 0Z" fill="#F5F7F9"/>
<path d="M186 0H188L186 4H184L186 0Z" fill="#F5F7F9"/>
<path d="M178 0H180L178 4H176L178 0Z" fill="#F5F7F9"/>
<path d="M170 0H172L170 4H168L170 0Z" fill="#F5F7F9"/>
<path d="M162 0H164L162 4H160L162 0Z" fill="#F5F7F9"/>
<path d="M154 0H156L154 4H152L154 0Z" fill="#F5F7F9"/>
<path d="M146 0H148L146 4H144L146 0Z" fill="#F5F7F9"/>
<path d="M138 0H140L138 4H136L138 0Z" fill="#F5F7F9"/>
<path d="M130 0H132L130 4H128L130 0Z" fill="#F5F7F9"/>
<path d="M122 0H124L122 4H120L122 0Z" fill="#F5F7F9"/>
<path d="M114 0H116L114 4H112L114 0Z" fill="#F5F7F9"/>
<path d="M106 0H108L106 4H104L106 0Z" fill="#F5F7F9"/>
<path d="M98 0H100L98 4H96L98 0Z" fill="#F5F7F9"/>
<path d="M90 0H92L90 4H88L90 0Z" fill="#F5F7F9"/>
<path d="M82 0H84L82 4H80L82 0Z" fill="#F5F7F9"/>
<path d="M74 0H76L74 4H72L74 0Z" fill="#F5F7F9"/>
<path d="M66 0H68L66 4H64L66 0Z" fill="#F5F7F9"/>
<path d="M58 0H60L58 4H56L58 0Z" fill="#F5F7F9"/>
<path d="M50 0H52L50 4H48L50 0Z" fill="#F5F7F9"/>
<path d="M42 0H44L42 4H40L42 0Z" fill="#F5F7F9"/>
<path d="M34 0H36L34 4H32L34 0Z" fill="#F5F7F9"/>
<path d="M26 0H28L26 4H24L26 0Z" fill="#F5F7F9"/>
<path d="M18 0H20L18 4H16L18 0Z" fill="#F5F7F9"/>
<path d="M10 0H12L10 4H8L10 0Z" fill="#F5F7F9"/>
<path d="M2 0H4L2 4H0L2 0Z" fill="#F5F7F9"/>
</svg>
